<?xml version="1.0" encoding="UTF-8" standalone="no"?>
<!-- svg by MarsCat -->

<svg
   width="256"
   height="256"
   viewBox="0 0 256 256"
   fill="#808080"
   stroke="#ffffff"
   stroke-width="0.125"
   version="1.1"
   id="svg1"
   sodipodi:docname="copy_tab_url.svg"
   inkscape:version="1.4 (86a8ad7, 2024-10-11)"
   xmlns:inkscape="http://www.inkscape.org/namespaces/inkscape"
   xmlns:sodipodi="http://sodipodi.sourceforge.net/DTD/sodipodi-0.dtd"
   xmlns="http://www.w3.org/2000/svg"
   xmlns:svg="http://www.w3.org/2000/svg">
  <defs
     id="defs1" />
  <sodipodi:namedview
     id="namedview1"
     pagecolor="#505050"
     bordercolor="#eeeeee"
     borderopacity="1"
     inkscape:showpageshadow="0"
     inkscape:pageopacity="0"
     inkscape:pagecheckerboard="0"
     inkscape:deskcolor="#505050"
     showgrid="true"
     inkscape:zoom="0.80566407"
     inkscape:cx="-86.264242"
     inkscape:cy="149.56606"
     inkscape:window-width="1920"
     inkscape:window-height="1027"
     inkscape:window-x="-8"
     inkscape:window-y="-8"
     inkscape:window-maximized="1"
     inkscape:current-layer="svg1">
    <inkscape:grid
       id="grid1"
       units="px"
       originx="0"
       originy="0"
       spacingx="8"
       spacingy="8"
       empcolor="#0099e5"
       empopacity="0.30196078"
       color="#0099e5"
       opacity="0.14901961"
       empspacing="5"
       enabled="true"
       visible="true" />
  </sodipodi:namedview>
  <path
     style="fill:#404040;stroke:#404040;stroke-width:32;stroke-linecap:round;stroke-linejoin:round;stroke-dasharray:none;stroke-opacity:1;fill-opacity:1"
     d="M 32,32 V 224 H 224 V 32 Z"
     id="path5"
     inkscape:label="BKGR" />
  <path
     d="m 224.9375,112.008 16,-16 L 240,224 H 0 V 64 C 0,64 -9.4388413e-7,32 32,32 h 32 c 32,0 32,32 32,32 H 208 L 192,80 H 16 v 128 h 208 z"
     id="path1"
     style="fill:#c0c0c0;fill-opacity:1;stroke:none;stroke-width:2"
     sodipodi:nodetypes="cccccssccccccc"
     inkscape:label="ICON" />
  <path
     style="fill:none;stroke:#8080c0;stroke-width:16;stroke-linecap:round;stroke-linejoin:round;stroke-dasharray:none;stroke-opacity:1"
     d="m 40,104 v 64 c 0,0 0,16 16,16 16,0 16,-16 16,-16 v -64"
     id="path2"
     sodipodi:nodetypes="ccccc"
     inkscape:label="U" />
  <path
     style="fill:none;stroke:#8080c0;stroke-width:16;stroke-linecap:round;stroke-linejoin:round;stroke-dasharray:none;stroke-opacity:1"
     d="m 104,184 v -80 h 16 c 0,0 16,0 16,24 0,24 -16,24 -16,24 l 16,32"
     id="path3"
     sodipodi:nodetypes="cccscc"
     inkscape:label="R" />
  <path
     style="fill:none;stroke:#8080c0;stroke-width:16;stroke-linecap:round;stroke-linejoin:round;stroke-dasharray:none;stroke-opacity:1"
     d="m 168,104 v 80 h 32"
     id="path4"
     sodipodi:nodetypes="ccc"
     inkscape:label="L" />
  <path
     d="m 208,48 16,16 -32,32 16,16 32,-32 16,16 V 48 Z"
     style="fill:#ff8080;fill-opacity:1;stroke:none;stroke-width:2"
     id="path1-8"
     sodipodi:nodetypes="cccccccc"
     inkscape:label="ARROW" />
</svg>
