<?xml version="1.0" encoding="UTF-8" standalone="no"?>
<!-- svg by MarsCat -->

<svg
   width="256"
   height="256"
   viewBox="0 0 256 256"
   fill="#808080"
   stroke="#ffffff"
   stroke-width="0.125"
   version="1.1"
   id="svg1"
   xmlns="http://www.w3.org/2000/svg"
   xmlns:svg="http://www.w3.org/2000/svg">
  <defs
     id="defs1" />
  <path
     style="fill:#404040;stroke:#404040;stroke-width:32;stroke-linecap:round;stroke-linejoin:round;stroke-dasharray:none;stroke-opacity:1;fill-opacity:1"
     d="M 32,32 V 224 H 224 V 32 Z"
     id="path5" />
  <path
     d="m 224.9375,112.008 16,-16 L 240,224 H 0 V 64 C 0,64 -9.4388413e-7,32 32,32 h 32 c 32,0 32,32 32,32 H 208 L 192,80 H 16 v 128 h 208 z"
     id="path1"
     style="fill:#c0c0c0;fill-opacity:1;stroke:none;stroke-width:2" />
  <path
     style="fill:none;stroke:#8080c0;stroke-width:16;stroke-linecap:round;stroke-linejoin:round;stroke-dasharray:none;stroke-opacity:1"
     d="m 40,104 v 64 c 0,0 0,16 16,16 16,0 16,-16 16,-16 v -64"
     id="path2" />
  <path
     style="fill:none;stroke:#8080c0;stroke-width:16;stroke-linecap:round;stroke-linejoin:round;stroke-dasharray:none;stroke-opacity:1"
     d="m 104,184 v -80 h 16 c 0,0 16,0 16,24 0,24 -16,24 -16,24 l 16,32"
     id="path3" />
  <path
     style="fill:none;stroke:#8080c0;stroke-width:16;stroke-linecap:round;stroke-linejoin:round;stroke-dasharray:none;stroke-opacity:1"
     d="m 168,104 v 80 h 32"
     id="path4" />
  <path
     d="m 208,48 16,16 -32,32 16,16 32,-32 16,16 V 48 Z"
     style="fill:#ff8080;fill-opacity:1;stroke:none;stroke-width:2"
     id="path1-8" />
</svg>
